<mxfile host="app.diagrams.net" modified="2023-10-14T07:04:27.504Z" agent="Mozilla/5.0 (Windows NT 10.0; Win64; x64) AppleWebKit/537.36 (KHTML, like Gecko) Chrome/117.0.0.0 Safari/537.36" etag="xqplUuG8EU8IvltFm8jS" version="22.0.4" type="device" pages="2">
  <diagram name="Страница — 1" id="ux6q40Pu5iE4aQ-d964G">
    <mxGraphModel dx="1062" dy="585" grid="1" gridSize="10" guides="1" tooltips="1" connect="1" arrows="1" fold="1" page="1" pageScale="1" pageWidth="827" pageHeight="1169" math="0" shadow="0">
      <root>
        <mxCell id="0" />
        <mxCell id="1" parent="0" />
        <mxCell id="MZCvY_rI6QbF94cyVprr-10" value="Пользователь" style="shape=umlActor;verticalLabelPosition=bottom;verticalAlign=top;html=1;outlineConnect=0;" parent="1" vertex="1">
          <mxGeometry x="40" y="550" width="30" height="60" as="geometry" />
        </mxCell>
        <mxCell id="MZCvY_rI6QbF94cyVprr-18" value="" style="endArrow=none;html=1;rounded=0;entryX=0.006;entryY=0.648;entryDx=0;entryDy=0;entryPerimeter=0;" parent="1" target="MZCvY_rI6QbF94cyVprr-1" edge="1">
          <mxGeometry width="50" height="50" relative="1" as="geometry">
            <mxPoint x="80" y="580" as="sourcePoint" />
            <mxPoint x="130" y="525" as="targetPoint" />
          </mxGeometry>
        </mxCell>
        <mxCell id="MZCvY_rI6QbF94cyVprr-19" value="" style="endArrow=none;html=1;rounded=0;entryX=0.009;entryY=0.587;entryDx=0;entryDy=0;entryPerimeter=0;" parent="1" target="MZCvY_rI6QbF94cyVprr-2" edge="1">
          <mxGeometry width="50" height="50" relative="1" as="geometry">
            <mxPoint x="80" y="580" as="sourcePoint" />
            <mxPoint x="291" y="392" as="targetPoint" />
          </mxGeometry>
        </mxCell>
        <mxCell id="MZCvY_rI6QbF94cyVprr-20" value="" style="endArrow=none;html=1;rounded=0;entryX=0;entryY=0.5;entryDx=0;entryDy=0;" parent="1" target="MZCvY_rI6QbF94cyVprr-3" edge="1">
          <mxGeometry width="50" height="50" relative="1" as="geometry">
            <mxPoint x="80" y="580" as="sourcePoint" />
            <mxPoint x="291" y="477" as="targetPoint" />
          </mxGeometry>
        </mxCell>
        <mxCell id="MZCvY_rI6QbF94cyVprr-21" value="" style="endArrow=none;html=1;rounded=0;" parent="1" target="MZCvY_rI6QbF94cyVprr-4" edge="1">
          <mxGeometry width="50" height="50" relative="1" as="geometry">
            <mxPoint x="80" y="580" as="sourcePoint" />
            <mxPoint x="290" y="560" as="targetPoint" />
          </mxGeometry>
        </mxCell>
        <mxCell id="MZCvY_rI6QbF94cyVprr-22" value="" style="endArrow=none;html=1;rounded=0;entryX=0.064;entryY=0.241;entryDx=0;entryDy=0;entryPerimeter=0;" parent="1" target="MZCvY_rI6QbF94cyVprr-5" edge="1">
          <mxGeometry width="50" height="50" relative="1" as="geometry">
            <mxPoint x="80" y="580" as="sourcePoint" />
            <mxPoint x="270" y="710" as="targetPoint" />
          </mxGeometry>
        </mxCell>
        <mxCell id="MZCvY_rI6QbF94cyVprr-23" value="" style="endArrow=none;html=1;rounded=0;entryX=0.009;entryY=0.337;entryDx=0;entryDy=0;entryPerimeter=0;" parent="1" target="MZCvY_rI6QbF94cyVprr-6" edge="1">
          <mxGeometry width="50" height="50" relative="1" as="geometry">
            <mxPoint x="80" y="580" as="sourcePoint" />
            <mxPoint x="298" y="719" as="targetPoint" />
          </mxGeometry>
        </mxCell>
        <mxCell id="MZCvY_rI6QbF94cyVprr-24" value="В" style="swimlane;startSize=0;spacingTop=10;swimlaneLine=0;" parent="1" vertex="1">
          <mxGeometry x="240" y="220" width="940" height="600" as="geometry">
            <mxRectangle x="310" y="180" width="50" height="40" as="alternateBounds" />
          </mxGeometry>
        </mxCell>
        <mxCell id="MZCvY_rI6QbF94cyVprr-1" value="Создать класс" style="ellipse;whiteSpace=wrap;html=1;" parent="MZCvY_rI6QbF94cyVprr-24" vertex="1">
          <mxGeometry x="104" y="60" width="120" height="80" as="geometry" />
        </mxCell>
        <mxCell id="MZCvY_rI6QbF94cyVprr-2" value="Добавить оценку" style="ellipse;whiteSpace=wrap;html=1;" parent="MZCvY_rI6QbF94cyVprr-24" vertex="1">
          <mxGeometry x="100" y="150" width="120" height="80" as="geometry" />
        </mxCell>
        <mxCell id="MZCvY_rI6QbF94cyVprr-3" value="Просмотреть класс" style="ellipse;whiteSpace=wrap;html=1;" parent="MZCvY_rI6QbF94cyVprr-24" vertex="1">
          <mxGeometry x="100" y="240" width="120" height="80" as="geometry" />
        </mxCell>
        <mxCell id="MZCvY_rI6QbF94cyVprr-4" value="Просмотреть оценки" style="ellipse;whiteSpace=wrap;html=1;" parent="MZCvY_rI6QbF94cyVprr-24" vertex="1">
          <mxGeometry x="100" y="330" width="120" height="80" as="geometry" />
        </mxCell>
        <mxCell id="MZCvY_rI6QbF94cyVprr-5" value="Редактировать оценку" style="ellipse;whiteSpace=wrap;html=1;" parent="MZCvY_rI6QbF94cyVprr-24" vertex="1">
          <mxGeometry x="100" y="420" width="120" height="80" as="geometry" />
        </mxCell>
        <mxCell id="MZCvY_rI6QbF94cyVprr-6" value="Удалить оценку" style="ellipse;whiteSpace=wrap;html=1;" parent="MZCvY_rI6QbF94cyVprr-24" vertex="1">
          <mxGeometry x="100" y="510" width="120" height="80" as="geometry" />
        </mxCell>
        <mxCell id="MZCvY_rI6QbF94cyVprr-26" value="ПО &quot;Журнал Учителя&quot;" style="text;html=1;align=center;verticalAlign=middle;resizable=0;points=[];autosize=1;strokeColor=none;fillColor=none;" parent="MZCvY_rI6QbF94cyVprr-24" vertex="1">
          <mxGeometry x="29" y="20" width="150" height="30" as="geometry" />
        </mxCell>
        <mxCell id="sS9-zWn8384yf4bsac2n-1" value="Добавить экзаменационную оценку" style="ellipse;whiteSpace=wrap;html=1;" parent="MZCvY_rI6QbF94cyVprr-24" vertex="1">
          <mxGeometry x="300" y="200" width="120" height="80" as="geometry" />
        </mxCell>
        <mxCell id="sS9-zWn8384yf4bsac2n-2" value="Добавить зачетную оценку" style="ellipse;whiteSpace=wrap;html=1;" parent="MZCvY_rI6QbF94cyVprr-24" vertex="1">
          <mxGeometry x="300" y="290" width="120" height="80" as="geometry" />
        </mxCell>
        <mxCell id="7F4UmjHMXmCZZdnTJC0z-1" value="Ввод" style="ellipse;whiteSpace=wrap;html=1;" parent="MZCvY_rI6QbF94cyVprr-24" vertex="1">
          <mxGeometry x="640" y="150" width="120" height="80" as="geometry" />
        </mxCell>
        <mxCell id="D67RhYm9cB9eR2V6co6R-1" value="&quot;Extends&quot;" style="endArrow=block;endSize=16;endFill=0;html=1;rounded=0;exitX=0;exitY=0.5;exitDx=0;exitDy=0;entryX=1;entryY=0.5;entryDx=0;entryDy=0;" parent="MZCvY_rI6QbF94cyVprr-24" source="sS9-zWn8384yf4bsac2n-1" target="MZCvY_rI6QbF94cyVprr-2" edge="1">
          <mxGeometry width="160" relative="1" as="geometry">
            <mxPoint x="290" y="200" as="sourcePoint" />
            <mxPoint x="450" y="200" as="targetPoint" />
          </mxGeometry>
        </mxCell>
        <mxCell id="D67RhYm9cB9eR2V6co6R-2" value="&quot;Extends&quot;" style="endArrow=block;endSize=16;endFill=0;html=1;rounded=0;exitX=-0.02;exitY=0.448;exitDx=0;exitDy=0;entryX=1.008;entryY=0.63;entryDx=0;entryDy=0;exitPerimeter=0;entryPerimeter=0;" parent="MZCvY_rI6QbF94cyVprr-24" source="sS9-zWn8384yf4bsac2n-2" target="MZCvY_rI6QbF94cyVprr-2" edge="1">
          <mxGeometry width="160" relative="1" as="geometry">
            <mxPoint x="310" y="160" as="sourcePoint" />
            <mxPoint x="230" y="200" as="targetPoint" />
          </mxGeometry>
        </mxCell>
        <mxCell id="D67RhYm9cB9eR2V6co6R-3" value="Inc" style="endArrow=open;endSize=12;dashed=1;html=1;rounded=0;entryX=0;entryY=0.5;entryDx=0;entryDy=0;exitX=0.939;exitY=0.171;exitDx=0;exitDy=0;exitPerimeter=0;" parent="MZCvY_rI6QbF94cyVprr-24" source="MZCvY_rI6QbF94cyVprr-1" target="7F4UmjHMXmCZZdnTJC0z-1" edge="1">
          <mxGeometry width="160" relative="1" as="geometry">
            <mxPoint x="450" y="160" as="sourcePoint" />
            <mxPoint x="610" y="160" as="targetPoint" />
          </mxGeometry>
        </mxCell>
        <mxCell id="D67RhYm9cB9eR2V6co6R-4" value="Inc" style="endArrow=open;endSize=12;dashed=1;html=1;rounded=0;entryX=0.005;entryY=0.64;entryDx=0;entryDy=0;entryPerimeter=0;" parent="MZCvY_rI6QbF94cyVprr-24" source="MZCvY_rI6QbF94cyVprr-2" target="7F4UmjHMXmCZZdnTJC0z-1" edge="1">
          <mxGeometry width="160" relative="1" as="geometry">
            <mxPoint x="227" y="84" as="sourcePoint" />
            <mxPoint x="650" y="200" as="targetPoint" />
          </mxGeometry>
        </mxCell>
        <mxCell id="D67RhYm9cB9eR2V6co6R-5" value="Inc" style="endArrow=open;endSize=12;dashed=1;html=1;rounded=0;entryX=0;entryY=1;entryDx=0;entryDy=0;exitX=1;exitY=0.696;exitDx=0;exitDy=0;exitPerimeter=0;" parent="MZCvY_rI6QbF94cyVprr-24" source="MZCvY_rI6QbF94cyVprr-5" target="7F4UmjHMXmCZZdnTJC0z-1" edge="1">
          <mxGeometry width="160" relative="1" as="geometry">
            <mxPoint x="230" y="201" as="sourcePoint" />
            <mxPoint x="651" y="211" as="targetPoint" />
          </mxGeometry>
        </mxCell>
        <mxCell id="D67RhYm9cB9eR2V6co6R-6" value="Inc" style="endArrow=open;endSize=12;dashed=1;html=1;rounded=0;exitX=0.982;exitY=0.295;exitDx=0;exitDy=0;exitPerimeter=0;entryX=0.27;entryY=1.002;entryDx=0;entryDy=0;entryPerimeter=0;" parent="MZCvY_rI6QbF94cyVprr-24" source="MZCvY_rI6QbF94cyVprr-6" target="7F4UmjHMXmCZZdnTJC0z-1" edge="1">
          <mxGeometry width="160" relative="1" as="geometry">
            <mxPoint x="225" y="454" as="sourcePoint" />
            <mxPoint x="660" y="222" as="targetPoint" />
          </mxGeometry>
        </mxCell>
      </root>
    </mxGraphModel>
  </diagram>
  <diagram id="y0Ls6sGh6Q6nyrnBEFun" name="Страница — 2">
    <mxGraphModel dx="1752" dy="510" grid="1" gridSize="10" guides="1" tooltips="1" connect="1" arrows="1" fold="1" page="1" pageScale="1" pageWidth="827" pageHeight="1169" math="0" shadow="0">
      <root>
        <mxCell id="0" />
        <mxCell id="1" parent="0" />
        <mxCell id="7PUyUgCDQVAAqB5-Uqqy-9" value="Group" style="swimlane;fontStyle=1;align=center;verticalAlign=top;childLayout=stackLayout;horizontal=1;startSize=26;horizontalStack=0;resizeParent=1;resizeParentMax=0;resizeLast=0;collapsible=1;marginBottom=0;whiteSpace=wrap;html=1;" parent="1" vertex="1">
          <mxGeometry x="-50" y="180" width="200" height="190" as="geometry" />
        </mxCell>
        <mxCell id="7PUyUgCDQVAAqB5-Uqqy-10" value="- номер: int&lt;br&gt;- название: string&lt;br&gt;- оценки: list&amp;lt;grades&amp;gt;" style="text;strokeColor=none;fillColor=none;align=left;verticalAlign=top;spacingLeft=4;spacingRight=4;overflow=hidden;rotatable=0;points=[[0,0.5],[1,0.5]];portConstraint=eastwest;whiteSpace=wrap;html=1;" parent="7PUyUgCDQVAAqB5-Uqqy-9" vertex="1">
          <mxGeometry y="26" width="200" height="54" as="geometry" />
        </mxCell>
        <mxCell id="7PUyUgCDQVAAqB5-Uqqy-11" value="" style="line;strokeWidth=1;fillColor=none;align=left;verticalAlign=middle;spacingTop=-1;spacingLeft=3;spacingRight=3;rotatable=0;labelPosition=right;points=[];portConstraint=eastwest;strokeColor=inherit;" parent="7PUyUgCDQVAAqB5-Uqqy-9" vertex="1">
          <mxGeometry y="80" width="200" height="8" as="geometry" />
        </mxCell>
        <mxCell id="7PUyUgCDQVAAqB5-Uqqy-12" value="+ Название(): string&lt;br&gt;+ Оценки(): list&amp;lt;&amp;gt;grades&lt;br&gt;+ НапечататьОценки(): void&lt;br&gt;+ ДобавитьОценку(): void&lt;br&gt;+ РедактироватьОценку(): void&lt;br&gt;+ УдалитьОценку(): void" style="text;strokeColor=none;fillColor=none;align=left;verticalAlign=top;spacingLeft=4;spacingRight=4;overflow=hidden;rotatable=0;points=[[0,0.5],[1,0.5]];portConstraint=eastwest;whiteSpace=wrap;html=1;" parent="7PUyUgCDQVAAqB5-Uqqy-9" vertex="1">
          <mxGeometry y="88" width="200" height="102" as="geometry" />
        </mxCell>
        <mxCell id="7PUyUgCDQVAAqB5-Uqqy-13" value="Grade" style="swimlane;fontStyle=1;align=center;verticalAlign=top;childLayout=stackLayout;horizontal=1;startSize=26;horizontalStack=0;resizeParent=1;resizeParentMax=0;resizeLast=0;collapsible=1;marginBottom=0;whiteSpace=wrap;html=1;" parent="1" vertex="1">
          <mxGeometry x="310" y="180" width="210" height="140" as="geometry" />
        </mxCell>
        <mxCell id="7PUyUgCDQVAAqB5-Uqqy-14" value="- ФИО: string&lt;br&gt;- дата: DateTime&lt;br&gt;- оценка: int" style="text;strokeColor=none;fillColor=none;align=left;verticalAlign=top;spacingLeft=4;spacingRight=4;overflow=hidden;rotatable=0;points=[[0,0.5],[1,0.5]];portConstraint=eastwest;whiteSpace=wrap;html=1;" parent="7PUyUgCDQVAAqB5-Uqqy-13" vertex="1">
          <mxGeometry y="26" width="210" height="54" as="geometry" />
        </mxCell>
        <mxCell id="7PUyUgCDQVAAqB5-Uqqy-15" value="" style="line;strokeWidth=1;fillColor=none;align=left;verticalAlign=middle;spacingTop=-1;spacingLeft=3;spacingRight=3;rotatable=0;labelPosition=right;points=[];portConstraint=eastwest;strokeColor=inherit;" parent="7PUyUgCDQVAAqB5-Uqqy-13" vertex="1">
          <mxGeometry y="80" width="210" height="8" as="geometry" />
        </mxCell>
        <mxCell id="7PUyUgCDQVAAqB5-Uqqy-16" value="+ ФИО(): string&lt;br&gt;+ Дата(): DateTime&lt;br&gt;+ Оценка(): int" style="text;strokeColor=none;fillColor=none;align=left;verticalAlign=top;spacingLeft=4;spacingRight=4;overflow=hidden;rotatable=0;points=[[0,0.5],[1,0.5]];portConstraint=eastwest;whiteSpace=wrap;html=1;" parent="7PUyUgCDQVAAqB5-Uqqy-13" vertex="1">
          <mxGeometry y="88" width="210" height="52" as="geometry" />
        </mxCell>
        <mxCell id="7PUyUgCDQVAAqB5-Uqqy-17" value="Exam" style="swimlane;fontStyle=1;align=center;verticalAlign=top;childLayout=stackLayout;horizontal=1;startSize=26;horizontalStack=0;resizeParent=1;resizeParentMax=0;resizeLast=0;collapsible=1;marginBottom=0;whiteSpace=wrap;html=1;" parent="1" vertex="1">
          <mxGeometry x="180" y="410" width="230" height="160" as="geometry" />
        </mxCell>
        <mxCell id="7PUyUgCDQVAAqB5-Uqqy-18" value="- название: string&lt;br&gt;- сложность: string&lt;br&gt;- продолжительность: string" style="text;strokeColor=none;fillColor=none;align=left;verticalAlign=top;spacingLeft=4;spacingRight=4;overflow=hidden;rotatable=0;points=[[0,0.5],[1,0.5]];portConstraint=eastwest;whiteSpace=wrap;html=1;" parent="7PUyUgCDQVAAqB5-Uqqy-17" vertex="1">
          <mxGeometry y="26" width="230" height="64" as="geometry" />
        </mxCell>
        <mxCell id="7PUyUgCDQVAAqB5-Uqqy-19" value="" style="line;strokeWidth=1;fillColor=none;align=left;verticalAlign=middle;spacingTop=-1;spacingLeft=3;spacingRight=3;rotatable=0;labelPosition=right;points=[];portConstraint=eastwest;strokeColor=inherit;" parent="7PUyUgCDQVAAqB5-Uqqy-17" vertex="1">
          <mxGeometry y="90" width="230" height="8" as="geometry" />
        </mxCell>
        <mxCell id="7PUyUgCDQVAAqB5-Uqqy-20" value="+ Название(): string&lt;br style=&quot;border-color: var(--border-color);&quot;&gt;+ Сложность(): string&lt;br style=&quot;border-color: var(--border-color);&quot;&gt;+ Продолжительность(): string" style="text;strokeColor=none;fillColor=none;align=left;verticalAlign=top;spacingLeft=4;spacingRight=4;overflow=hidden;rotatable=0;points=[[0,0.5],[1,0.5]];portConstraint=eastwest;whiteSpace=wrap;html=1;" parent="7PUyUgCDQVAAqB5-Uqqy-17" vertex="1">
          <mxGeometry y="98" width="230" height="62" as="geometry" />
        </mxCell>
        <mxCell id="7PUyUgCDQVAAqB5-Uqqy-21" value="Credit" style="swimlane;fontStyle=1;align=center;verticalAlign=top;childLayout=stackLayout;horizontal=1;startSize=26;horizontalStack=0;resizeParent=1;resizeParentMax=0;resizeLast=0;collapsible=1;marginBottom=0;whiteSpace=wrap;html=1;" parent="1" vertex="1">
          <mxGeometry x="430" y="410" width="230" height="160" as="geometry" />
        </mxCell>
        <mxCell id="7PUyUgCDQVAAqB5-Uqqy-22" value="- название: string&lt;br&gt;- статус: string&lt;br&gt;- тип: string" style="text;strokeColor=none;fillColor=none;align=left;verticalAlign=top;spacingLeft=4;spacingRight=4;overflow=hidden;rotatable=0;points=[[0,0.5],[1,0.5]];portConstraint=eastwest;whiteSpace=wrap;html=1;" parent="7PUyUgCDQVAAqB5-Uqqy-21" vertex="1">
          <mxGeometry y="26" width="230" height="64" as="geometry" />
        </mxCell>
        <mxCell id="7PUyUgCDQVAAqB5-Uqqy-23" value="" style="line;strokeWidth=1;fillColor=none;align=left;verticalAlign=middle;spacingTop=-1;spacingLeft=3;spacingRight=3;rotatable=0;labelPosition=right;points=[];portConstraint=eastwest;strokeColor=inherit;" parent="7PUyUgCDQVAAqB5-Uqqy-21" vertex="1">
          <mxGeometry y="90" width="230" height="8" as="geometry" />
        </mxCell>
        <mxCell id="7PUyUgCDQVAAqB5-Uqqy-24" value="+ Название(): string&lt;br style=&quot;border-color: var(--border-color);&quot;&gt;+ Статус(): string&lt;br style=&quot;border-color: var(--border-color);&quot;&gt;+ Тип(): string" style="text;strokeColor=none;fillColor=none;align=left;verticalAlign=top;spacingLeft=4;spacingRight=4;overflow=hidden;rotatable=0;points=[[0,0.5],[1,0.5]];portConstraint=eastwest;whiteSpace=wrap;html=1;" parent="7PUyUgCDQVAAqB5-Uqqy-21" vertex="1">
          <mxGeometry y="98" width="230" height="62" as="geometry" />
        </mxCell>
        <mxCell id="xeN43UhToh3oTZnU-SK4-1" value="&quot;Extends&quot;" style="endArrow=block;endSize=16;endFill=0;html=1;rounded=0;entryX=0.454;entryY=1.022;entryDx=0;entryDy=0;entryPerimeter=0;exitX=0.5;exitY=0;exitDx=0;exitDy=0;" parent="1" source="7PUyUgCDQVAAqB5-Uqqy-17" target="7PUyUgCDQVAAqB5-Uqqy-16" edge="1">
          <mxGeometry width="160" relative="1" as="geometry">
            <mxPoint x="270" y="390" as="sourcePoint" />
            <mxPoint x="430" y="390" as="targetPoint" />
          </mxGeometry>
        </mxCell>
        <mxCell id="xeN43UhToh3oTZnU-SK4-2" value="&quot;Extends&quot;" style="endArrow=block;endSize=16;endFill=0;html=1;rounded=0;entryX=0.531;entryY=1.058;entryDx=0;entryDy=0;entryPerimeter=0;exitX=0.5;exitY=0;exitDx=0;exitDy=0;" parent="1" source="7PUyUgCDQVAAqB5-Uqqy-21" target="7PUyUgCDQVAAqB5-Uqqy-16" edge="1">
          <mxGeometry width="160" relative="1" as="geometry">
            <mxPoint x="390" y="370" as="sourcePoint" />
            <mxPoint x="500" y="310" as="targetPoint" />
          </mxGeometry>
        </mxCell>
        <mxCell id="xeN43UhToh3oTZnU-SK4-3" value="" style="endArrow=none;html=1;rounded=0;exitX=1;exitY=0.574;exitDx=0;exitDy=0;entryX=-0.016;entryY=0.58;entryDx=0;entryDy=0;exitPerimeter=0;entryPerimeter=0;" parent="1" source="7PUyUgCDQVAAqB5-Uqqy-10" target="7PUyUgCDQVAAqB5-Uqqy-14" edge="1">
          <mxGeometry width="50" height="50" relative="1" as="geometry">
            <mxPoint x="220" y="310" as="sourcePoint" />
            <mxPoint x="270" y="260" as="targetPoint" />
          </mxGeometry>
        </mxCell>
        <mxCell id="xeN43UhToh3oTZnU-SK4-4" value="получает" style="text;html=1;align=center;verticalAlign=middle;resizable=0;points=[];autosize=1;strokeColor=none;fillColor=none;" parent="1" vertex="1">
          <mxGeometry x="190" y="210" width="70" height="30" as="geometry" />
        </mxCell>
      </root>
    </mxGraphModel>
  </diagram>
</mxfile>
